<?xml version="1.0" encoding="UTF-8"?>
<svg version="1.1" xmlns="http://www.w3.org/2000/svg" width="401" height="171">
<path d="M0 0 C9.9 0 19.8 0 30 0 C30 54.45 30 108.9 30 165 C20.1 165 10.2 165 0 165 C-0.33 150.48 -0.66 135.96 -1 121 C-11.23 131.23 -21.46 141.46 -32 152 C-36.85714286 149.57142857 -36.85714286 149.57142857 -39 147 C-39 146.34 -39 145.68 -39 145 C-39.66 145 -40.32 145 -41 145 C-41 144.34 -41 143.68 -41 143 C-41.66 143 -42.32 143 -43 143 C-43 142.34 -43 141.68 -43 141 C-43.66 141 -44.32 141 -45 141 C-45 140.34 -45 139.68 -45 139 C-45.66 139 -46.32 139 -47 139 C-47 138.34 -47 137.68 -47 137 C-47.66 137 -48.32 137 -49 137 C-51.625 134.6875 -51.625 134.6875 -54 132 C-54 131.01 -54 130.02 -54 129 C-53.34 129 -52.68 129 -52 129 C-51.7421875 128.41734375 -51.484375 127.8346875 -51.21875 127.234375 C-49.90165983 124.8197097 -48.44911616 123.18259823 -46.5 121.25 C-45.8915625 120.63640625 -45.283125 120.0228125 -44.65625 119.390625 C-43 118 -43 118 -41 118 C-41 117.34 -41 116.68 -41 116 C-40.34 116 -39.68 116 -39 116 C-39 115.34 -39 114.68 -39 114 C-38.34 114 -37.68 114 -37 114 C-36.731875 113.401875 -36.46375 112.80375 -36.1875 112.1875 C-35.00082594 110.00152146 -33.90400887 108.58667406 -32 107 C-31.34 107 -30.68 107 -30 107 C-29.34 105.68 -28.68 104.36 -28 103 C-27.34 103 -26.68 103 -26 103 C-26 102.34 -26 101.68 -26 101 C-25.34 101 -24.68 101 -24 101 C-24 100.34 -24 99.68 -24 99 C-45.78 98.505 -45.78 98.505 -68 98 C-68.020625 93.070625 -68.04125 88.14125 -68.0625 83.0625 C-68.071604 81.50539307 -68.08070801 79.94828613 -68.09008789 78.34399414 C-68.09258545 77.12832764 -68.09508301 75.91266113 -68.09765625 74.66015625 C-68.10289307 73.40855713 -68.10812988 72.15695801 -68.11352539 70.86743164 C-68 68 -68 68 -67 67 C-63.99359308 66.92365166 -61.00988183 66.9093264 -58.00390625 66.9375 C-57.1000267 66.94128662 -56.19614716 66.94507324 -55.26487732 66.94897461 C-51.3808757 66.96539683 -47.49697725 66.99350252 -43.61303711 67.02050781 C-40.78499838 67.03852835 -37.95697651 67.0506649 -35.12890625 67.0625 C-34.24554092 67.07079834 -33.3621756 67.07909668 -32.45204163 67.08764648 C-28.09006465 67.24620964 -28.09006465 67.24620964 -24 66 C-24.99 65.505 -24.99 65.505 -26 65 C-26 64.34 -26 63.68 -26 63 C-27.32 62.34 -28.64 61.68 -30 61 C-30 60.34 -30 59.68 -30 59 C-30.66 59 -31.32 59 -32 59 C-32 58.34 -32 57.68 -32 57 C-32.598125 56.731875 -33.19625 56.46375 -33.8125 56.1875 C-35.99847854 55.00082594 -37.41332594 53.90400887 -39 52 C-39 51.34 -39 50.68 -39 50 C-39.66 50 -40.32 50 -41 50 C-41 49.34 -41 48.68 -41 48 C-42.32 47.34 -43.64 46.68 -45 46 C-45 45.34 -45 44.68 -45 44 C-45.66 44 -46.32 44 -47 44 C-47 43.34 -47 42.68 -47 42 C-48.485 41.505 -48.485 41.505 -50 41 C-50 40.34 -50 39.68 -50 39 C-51.32 38.34 -52.64 37.68 -54 37 C-53.6875 35.0625 -53.6875 35.0625 -53 33 C-51.515 32.505 -51.515 32.505 -50 32 C-49.71125 31.4225 -49.4225 30.845 -49.125 30.25 C-47.60387378 27.20774755 -45.51286104 25.26157493 -43 23 C-42.34 23 -41.68 23 -41 23 C-40.773125 22.443125 -40.54625 21.88625 -40.3125 21.3125 C-38.64103234 18.36753316 -36.44723648 16.31843456 -34 14 C-31.14220983 15.29719924 -29.08991464 16.6636826 -26.88378906 18.88916016 C-26.29549316 19.47769775 -25.70719727 20.06623535 -25.10107422 20.67260742 C-24.49537598 21.2885376 -23.88967773 21.90446777 -23.265625 22.5390625 C-22.69956543 23.10713623 -22.13350586 23.67520996 -21.55029297 24.26049805 C-19.44469061 26.37653535 -17.34786095 28.50128754 -15.25 30.625 C-10.5475 35.36875 -5.845 40.1125 -1 45 C-0.67 30.15 -0.34 15.3 0 0 Z " fill="#F4D213" transform="translate(71,3)"/>
<path d="M0 0 C7.92 0 15.84 0 24 0 C26.33190652 8.52352039 28.48396053 16.99409801 30.28125 25.6484375 C31.16937831 29.78981844 32.19438267 33.88786513 33.25390625 37.98828125 C34.2418986 41.9764598 35.12193731 45.98639483 36 50 C35.96970703 49.33282959 35.93941406 48.66565918 35.90820312 47.97827148 C35.35964553 35.63256092 34.89868998 23.29676245 34.875 10.9375 C34.87048828 9.95128662 34.86597656 8.96507324 34.86132812 7.94897461 C34.86326172 7.04671143 34.86519531 6.14444824 34.8671875 5.21484375 C34.86831543 4.42198975 34.86944336 3.62913574 34.87060547 2.81225586 C35 1 35 1 36 0 C42.6 0 49.2 0 56 0 C56 35.64 56 71.28 56 108 C48.08 108 40.16 108 32 108 C29.23075863 97.435857 26.89949986 86.86063083 24.83911133 76.13500977 C24.64341553 75.12623779 24.44771973 74.11746582 24.24609375 73.078125 C24.07779053 72.19543945 23.9094873 71.31275391 23.73608398 70.40332031 C22.61921186 65.23940739 21.28139171 60.12556683 20 55 C20 72.49 20 89.98 20 108 C13.4 108 6.8 108 0 108 C0 72.36 0 36.72 0 0 Z " fill="#2C2F36" transform="translate(284,6)"/>
<path d="M0 0 C7.26 0 14.52 0 22 0 C22 13.53 22 27.06 22 41 C25.96 41 29.92 41 34 41 C34 27.47 34 13.94 34 0 C41.26 0 48.52 0 56 0 C56 35.64 56 71.28 56 108 C48.74 108 41.48 108 34 108 C34 92.16 34 76.32 34 60 C30.04 60 26.08 60 22 60 C22 75.84 22 91.68 22 108 C14.74 108 7.48 108 0 108 C0 72.36 0 36.72 0 0 Z " fill="#33353C" transform="translate(184,6)"/>
<path d="M0 0 C0.85078125 -0.01095703 1.7015625 -0.02191406 2.578125 -0.03320312 C8.72134801 0.03746278 12.69852231 1.47610732 18 4.5625 C18 5.2225 18 5.8825 18 6.5625 C18.598125 6.7275 19.19625 6.8925 19.8125 7.0625 C23.17576287 9.3687374 24.01182932 12.75834235 25 16.5625 C25.32507757 19.74752965 25.28821639 22.86572031 25.1875 26.0625 C25.125625 28.8675 25.06375 31.6725 25 34.5625 C18.4 34.5625 11.8 34.5625 5 34.5625 C4.8046875 31.828125 4.609375 29.09375 4.4140625 26.359375 C4.01534751 23.66616811 3.36492937 21.89286721 2 19.5625 C0.01508358 19.82926204 0.01508358 19.82926204 -2 20.5625 C-3.63062881 25.45438642 -3.57970583 29.13958569 -1.625 33.9375 C1.59116429 39.0240577 6.45394558 42.71268815 11 46.5625 C19.4950742 53.81085682 26.14861263 60.22555554 27.22021484 71.97753906 C27.35976404 74.71713672 27.41926426 77.44446093 27.4375 80.1875 C27.44749023 81.06986328 27.45748047 81.95222656 27.46777344 82.86132812 C27.35136982 91.76786781 25.4693644 99.24016661 19 105.5625 C11.00454984 111.28401479 2.51287486 111.14384235 -7 110.5625 C-13.13014347 109.43745922 -17.64680345 107.1181708 -22 102.5625 C-27.55140094 94.11084793 -27.1101193 85.36311737 -27 75.5625 C-19.74 75.5625 -12.48 75.5625 -5 75.5625 C-4.77213542 78.58984375 -4.54427083 81.6171875 -4.31640625 84.64453125 C-4.09787539 87.62239905 -4.09787539 87.62239905 -3 90.5625 C-1.1477633 91.56728037 -1.1477633 91.56728037 1 91.5625 C2.72687018 90.46813739 2.72687018 90.46813739 4 88.5625 C4.85326358 83.30455143 4.94250681 77.50315965 2.4375 72.6875 C-0.00382621 69.55759461 -2.47514671 67.22756608 -5.609375 64.82421875 C-6.06828125 64.40785156 -6.5271875 63.99148437 -7 63.5625 C-7 62.9025 -7 62.2425 -7 61.5625 C-7.8971875 61.129375 -7.8971875 61.129375 -8.8125 60.6875 C-11 59.5625 -11 59.5625 -14 57.5625 C-14 56.9025 -14 56.2425 -14 55.5625 C-14.66 55.5625 -15.32 55.5625 -16 55.5625 C-16 54.9025 -16 54.2425 -16 53.5625 C-16.66 53.5625 -17.32 53.5625 -18 53.5625 C-18.66 51.9125 -19.32 50.2625 -20 48.5625 C-20.66 48.5625 -21.32 48.5625 -22 48.5625 C-26.18099123 36.72950596 -28.38241536 23.88954847 -22.8125 12.03515625 C-17.24954525 2.95000461 -10.49334819 -0.29413173 0 0 Z " fill="#2F3238" transform="translate(149,4.4375)"/>
<path d="M0 0 C14.85 0 29.7 0 45 0 C45 6.6 45 13.2 45 20 C37.41 20 29.82 20 22 20 C22 26.93 22 33.86 22 41 C28.86612807 40.96041531 28.86612807 40.96041531 35.73217773 40.90991211 C37.00750366 40.90616577 37.00750366 40.90616577 38.30859375 40.90234375 C39.18314209 40.89710693 40.05769043 40.89187012 40.95874023 40.88647461 C43 41 43 41 44 42 C44.08651611 43.41570123 44.10704904 44.835595 44.09765625 46.25390625 C44.09515869 47.0229126 44.09266113 47.79191895 44.09008789 48.58422852 C44.08098389 49.56705811 44.07187988 50.5498877 44.0625 51.5625 C44.041875 54.676875 44.02125 57.79125 44 61 C36.74 61 29.48 61 22 61 C22 70.24 22 79.48 22 89 C30.25 89 38.5 89 47 89 C47 99 47 99 45 108 C30.15 108 15.3 108 0 108 C0 72.36 0 36.72 0 0 Z " fill="#31333A" transform="translate(351,6)"/>
<path d="M0 0 C6.93 0 13.86 0 21 0 C21 35.64 21 71.28 21 108 C14.07 108 7.14 108 0 108 C0 72.36 0 36.72 0 0 Z " fill="#292C32" transform="translate(251,6)"/>
<path d="M0 0 C2.31 0 4.62 0 7 0 C7.33 1.65 7.66 3.3 8 5 C8.66 3.35 9.32 1.7 10 0 C12.31 0 14.62 0 17 0 C17.29405139 3.33258238 17.06354659 4.88307428 15.4375 7.875 C12.84101547 13.5195316 15.09027794 18.40443576 17 24 C17.02505615 23.30849854 17.0501123 22.61699707 17.07592773 21.90454102 C17.19152161 18.79032134 17.31441242 15.67643211 17.4375 12.5625 C17.47681641 11.47388672 17.51613281 10.38527344 17.55664062 9.26367188 C17.59853516 8.22919922 17.64042969 7.19472656 17.68359375 6.12890625 C17.72025146 5.17056885 17.75690918 4.21223145 17.79467773 3.22485352 C18 1 18 1 19 0 C21.18639453 -0.07258946 23.37500389 -0.08373783 25.5625 -0.0625 C27.35880859 -0.04896484 27.35880859 -0.04896484 29.19140625 -0.03515625 C30.11824219 -0.02355469 31.04507812 -0.01195312 32 0 C32 1.98 32 3.96 32 6 C30.02 6 28.04 6 26 6 C26 7.98 26 9.96 26 12 C27.98 12 29.96 12 32 12 C32 13.98 32 15.96 32 18 C30.02 18 28.04 18 26 18 C26 20.31 26 22.62 26 25 C28.31 25 30.62 25 33 25 C32.67 26.98 32.34 28.96 32 31 C24.74 31 17.48 31 10 31 C9.34 28.69 8.68 26.38 8 24 C7.67 26.31 7.34 28.62 7 31 C4.69 31 2.38 31 0 31 C0 20.77 0 10.54 0 0 Z " fill="#44464C" transform="translate(301,132)"/>
<path d="M0 0 C2.97 0 5.94 0 9 0 C9.33 1.32 9.66 2.64 10 4 C10.66 2.68 11.32 1.36 12 0 C15.3 0 18.6 0 22 0 C22 10.23 22 20.46 22 31 C14.74 31 7.48 31 0 31 C0 20.77 0 10.54 0 0 Z " fill="#46474E" transform="translate(239,132)"/>
<path d="M0 0 C9.9 0 19.8 0 30 0 C30 54.45 30 108.9 30 165 C20.1 165 10.2 165 0 165 C0 150.15 0 135.3 0 120 C0.33 120 0.66 120 1 120 C1 134.19 1 148.38 1 163 C8.59 163 16.18 163 24 163 C24 161.68 24 160.36 24 159 C25.32 159 26.64 159 28 159 C27.505 158.01 27.505 158.01 27 157 C26.90396239 155.18334047 26.87204157 153.36314102 26.87060547 151.54394531 C26.86745331 150.40225891 26.86430115 149.26057251 26.86105347 148.08428955 C26.8630777 146.84475525 26.86510193 145.60522095 26.8671875 144.328125 C26.86575241 142.422659 26.86575241 142.422659 26.86428833 140.47869873 C26.86360657 137.785244 26.86496107 135.0918794 26.86962891 132.3984375 C26.87530321 128.95758016 26.87206119 125.51680122 26.86605644 122.07594681 C26.86155537 118.78500348 26.86471639 115.49406936 26.8671875 112.203125 C26.86516327 110.97168762 26.86313904 109.74025024 26.86105347 108.47149658 C26.86420563 107.31720154 26.86735779 106.16290649 26.87060547 104.97363281 C26.87140106 103.96262512 26.87219666 102.95161743 26.87301636 101.90997314 C27 99 27 99 27.53152466 95.83099365 C28.10503967 92.3652459 27.60934145 89.64170435 27 86.1875 C26.20942869 80.79609091 25.97269558 76.00546496 26.40625 70.546875 C26.91492807 63.35561607 27.15439895 56.18042944 27.28125 48.97265625 C27.30964966 47.3984919 27.30964966 47.3984919 27.33862305 45.79252625 C27.41415982 41.44695585 27.48358782 37.1012991 27.55224609 32.75561523 C27.60434516 29.53622773 27.66138555 26.31695359 27.71875 23.09765625 C27.73232544 22.13078384 27.74590088 21.16391144 27.7598877 20.16773987 C27.77660522 19.24234909 27.79332275 18.31695831 27.81054688 17.36352539 C27.82307495 16.56652725 27.83560303 15.76952911 27.84851074 14.94837952 C28.07085742 10.62092816 28.56883449 6.31165509 29 2 C19.76 2 10.52 2 1 2 C0.67 2.66 0.34 3.32 0 4 C0 2.68 0 1.36 0 0 Z " fill="#F1D851" transform="translate(71,3)"/>
<path d="M0 0 C2.64 0 5.28 0 8 0 C8.33 0.99 8.66 1.98 9 3 C9.33 2.01 9.66 1.02 10 0 C12.33294775 -0.04241723 14.66702567 -0.04092937 17 0 C18 1 18 1 18.11352539 3.86743164 C18.10828857 5.11903076 18.10305176 6.37062988 18.09765625 7.66015625 C18.0962413 8.32462265 18.09482635 8.98908905 18.09336853 9.6736908 C18.08775518 11.80333899 18.07520054 13.93288339 18.0625 16.0625 C18.05748671 17.50325369 18.05292351 18.94400903 18.04882812 20.38476562 C18.03778145 23.92321102 18.02050792 27.46159539 18 31 C15.03 31 12.06 31 9 31 C8.67 29.68 8.34 28.36 8 27 C7.67 28.32 7.34 29.64 7 31 C4.69 31 2.38 31 0 31 C0 20.77 0 10.54 0 0 Z " fill="#47494F" transform="translate(362,132)"/>
<path d="M0 0 C12 0 12 0 16 3 C16.45410156 5.91088867 16.45410156 5.91088867 16.390625 9.41796875 C16.37128906 11.29838867 16.37128906 11.29838867 16.3515625 13.21679688 C16.31804687 14.52712891 16.28453125 15.83746094 16.25 17.1875 C16.22993307 18.5227601 16.21168262 19.85804883 16.1953125 21.19335938 C16.14810401 24.462547 16.0763601 27.73136336 16 31 C10.72 31 5.44 31 0 31 C0 20.77 0 10.54 0 0 Z M8 6 C8 7.98 8 9.96 8 12 C8.33 12 8.66 12 9 12 C9 10.02 9 8.04 9 6 C8.67 6 8.34 6 8 6 Z " fill="#34363C" transform="translate(282,132)"/>
<path d="M0 0 C12 0 12 0 15.22265625 1.83984375 C17.80638429 6.43376898 17.61828464 10.38355166 17.4375 15.5625 C17.43169922 16.50802734 17.42589844 17.45355469 17.41992188 18.42773438 C17.27987987 26.3541119 17.27987987 26.3541119 15 30 C10.51793698 32.24103151 5.01109879 31 0 31 C0 20.77 0 10.54 0 0 Z M7 6 C7 12.27 7 18.54 7 25 C7.66 25 8.32 25 9 25 C9 18.73 9 12.46 9 6 C8.34 6 7.68 6 7 6 Z " fill="#2B2C32" transform="translate(124,132)"/>
<path d="M0 0 C0.76441406 0.02191406 1.52882812 0.04382813 2.31640625 0.06640625 C4.4375 0.4375 4.4375 0.4375 7.4375 2.4375 C8.13802461 5.100563 8.21494818 7.67785737 8.4375 10.4375 C5.7975 10.4375 3.1575 10.4375 0.4375 10.4375 C0.1075 9.7775 -0.2225 9.1175 -0.5625 8.4375 C-0.8925 10.0875 -1.2225 11.7375 -1.5625 13.4375 C1.7375 13.4375 5.0375 13.4375 8.4375 13.4375 C8.4375 19.3775 8.4375 25.3175 8.4375 31.4375 C-3.93742273 32.92249073 -3.93742273 32.92249073 -6.73144531 30.75463867 C-8.9178587 27.98780542 -9.07648264 26.67725372 -9.09375 23.19140625 C-9.09890625 22.18916016 -9.1040625 21.18691406 -9.109375 20.15429688 C-9.09390625 19.11337891 -9.0784375 18.07246094 -9.0625 17 C-9.07796875 15.96294922 -9.0934375 14.92589844 -9.109375 13.85742188 C-9.08608312 9.32423902 -9.0154081 6.26631169 -6.81640625 2.2421875 C-4.26848244 0.20208212 -3.21855021 -0.16882412 0 0 Z M-1.5625 19.4375 C-1.2325 21.7475 -0.9025 24.0575 -0.5625 26.4375 C-0.2325 26.4375 0.0975 26.4375 0.4375 26.4375 C0.4375 24.1275 0.4375 21.8175 0.4375 19.4375 C-0.2225 19.4375 -0.8825 19.4375 -1.5625 19.4375 Z " fill="#44484D" transform="translate(161.5625,131.5625)"/>
<path d="M0 0 C1.299375 0.02900391 1.299375 0.02900391 2.625 0.05859375 C3.49125 0.05988281 4.3575 0.06117188 5.25 0.0625 C8.06128624 0.57574469 8.98950641 1.17337321 10.625 3.49609375 C10.8125 7.18359375 10.8125 7.18359375 10.625 10.49609375 C8.315 10.49609375 6.005 10.49609375 3.625 10.49609375 C3.625 9.17609375 3.625 7.85609375 3.625 6.49609375 C2.965 6.49609375 2.305 6.49609375 1.625 6.49609375 C1.625 8.80609375 1.625 11.11609375 1.625 13.49609375 C4.595 13.49609375 7.565 13.49609375 10.625 13.49609375 C10.625 19.43609375 10.625 25.37609375 10.625 31.49609375 C-1.85457981 32.85525591 -1.85457981 32.85525591 -4.04614258 31.34277344 C-5.88226971 28.79115381 -5.76292512 27.00093201 -5.7734375 23.875 C-5.77730469 22.77478516 -5.78117187 21.67457031 -5.78515625 20.54101562 C-5.77355469 19.39181641 -5.76195312 18.24261719 -5.75 17.05859375 C-5.76160156 15.91326172 -5.77320313 14.76792969 -5.78515625 13.58789062 C-5.78128906 12.48638672 -5.77742188 11.38488281 -5.7734375 10.25 C-5.77005371 9.24267822 -5.76666992 8.23535645 -5.76318359 7.19750977 C-5.20406182 3.30651451 -3.98058114 0.83147007 0 0 Z M1.625 19.49609375 C1.625 21.47609375 1.625 23.45609375 1.625 25.49609375 C2.285 25.49609375 2.945 25.49609375 3.625 25.49609375 C3.625 23.51609375 3.625 21.53609375 3.625 19.49609375 C2.965 19.49609375 2.305 19.49609375 1.625 19.49609375 Z " fill="#373A3E" transform="translate(387.375,131.50390625)"/>
<path d="M0 0 C1.64574566 -0.02688151 3.29161413 -0.04634123 4.9375 -0.0625 C5.85402344 -0.07410156 6.77054687 -0.08570313 7.71484375 -0.09765625 C10 0 10 0 11 1 C11.28592308 2.62010601 11.51494313 4.25034251 11.71875 5.8828125 C11.84636719 6.88570312 11.97398437 7.88859375 12.10546875 8.921875 C12.23566406 9.97890625 12.36585938 11.0359375 12.5 12.125 C12.76007466 14.19014727 13.02048349 16.25525248 13.28125 18.3203125 C13.40371094 19.29774414 13.52617187 20.27517578 13.65234375 21.28222656 C14.0674253 24.52709161 14.52326158 27.76367956 15 31 C12.36 31 9.72 31 7 31 C6.67 28.69 6.34 26.38 6 24 C5.34 24 4.68 24 4 24 C4 26.31 4 28.62 4 31 C1.36 31 -1.28 31 -4 31 C-3.52532923 26.582838 -3.0444895 22.16636891 -2.5625 17.75 C-2.42779297 16.49574219 -2.29308594 15.24148437 -2.15429688 13.94921875 C-2.02216797 12.74394531 -1.89003906 11.53867188 -1.75390625 10.296875 C-1.57323608 8.63156738 -1.57323608 8.63156738 -1.38891602 6.93261719 C-1.07189849 4.54214983 -0.65297377 2.31620885 0 0 Z " fill="#3B3E44" transform="translate(266,132)"/>
<path d="M0 0 C3.3 0 6.6 0 10 0 C10.20496094 1.33675781 10.40992188 2.67351562 10.62109375 4.05078125 C10.89309318 5.80470859 11.16523606 7.5586137 11.4375 9.3125 C11.57220703 10.19357422 11.70691406 11.07464844 11.84570312 11.98242188 C12.04389648 13.25375977 12.04389648 13.25375977 12.24609375 14.55078125 C12.36654053 15.33106689 12.4869873 16.11135254 12.61108398 16.9152832 C12.98488611 19.18279797 12.98488611 19.18279797 14 22 C14.06740865 23.56118428 14.08514456 25.1250252 14.0625 26.6875 C14.05347656 27.49574219 14.04445312 28.30398437 14.03515625 29.13671875 C14.02355469 29.75160156 14.01195312 30.36648437 14 31 C11.69 31 9.38 31 7 31 C6.67 28.69 6.34 26.38 6 24 C5.34 24 4.68 24 4 24 C3.67 26.31 3.34 28.62 3 31 C0.69 31 -1.62 31 -4 31 C-4.30473766 24.36243278 -3.14592515 18.08575633 -2 11.5625 C-1.71382812 9.8928418 -1.71382812 9.8928418 -1.421875 8.18945312 C-0.95307635 5.45870097 -0.47898096 2.72898129 0 0 Z M4 16 C5 18 5 18 5 18 Z " fill="#3E4046" transform="translate(200,132)"/>
<path d="M0 0 C4.29 0 8.58 0 13 0 C13 1.98 13 3.96 13 6 C11.02 6 9.04 6 7 6 C7 7.98 7 9.96 7 12 C8.98 12 10.96 12 13 12 C13 13.98 13 15.96 13 18 C11.02 18 9.04 18 7 18 C7 20.31 7 22.62 7 25 C9.31 25 11.62 25 14 25 C13.67 26.98 13.34 28.96 13 31 C8.71 31 4.42 31 0 31 C0 20.77 0 10.54 0 0 Z " fill="#31343A" transform="translate(320,132)"/>
<path d="M0 0 C0.66 0 1.32 0 2 0 C2.5625 1.9375 2.5625 1.9375 3 4 C2 5 2 5 0.20933533 5.12025452 C-0.57009933 5.11803391 -1.349534 5.11581329 -2.15258789 5.11352539 C-3.03342545 5.11344986 -3.914263 5.11337433 -4.8217926 5.11329651 C-5.77907761 5.10813522 -6.73636261 5.10297394 -7.72265625 5.09765625 C-8.69786728 5.0962413 -9.67307831 5.09482635 -10.67784119 5.09336853 C-13.80609143 5.08775133 -16.93427123 5.07519593 -20.0625 5.0625 C-22.17773334 5.05748722 -24.29296781 5.05292393 -26.40820312 5.04882812 C-31.60551801 5.03862531 -36.80267975 5.01905331 -42 5 C-41.67 13.25 -41.34 21.5 -41 30 C-19.22 30.495 -19.22 30.495 3 31 C0.74576271 40.01694915 0.74576271 40.01694915 -4 43 C-4.845625 43.556875 -5.69125 44.11375 -6.5625 44.6875 C-9 46 -9 46 -12 46 C-10.71034824 44.62437146 -9.37310707 43.29233607 -8 42 C-7.34 42 -6.68 42 -6 42 C-5.34 40.68 -4.68 39.36 -4 38 C-3.34 38 -2.68 38 -2 38 C-2 37.34 -2 36.68 -2 36 C-1.34 36 -0.68 36 0 36 C0 35.34 0 34.68 0 34 C-21.78 33.505 -21.78 33.505 -44 33 C-44.020625 28.070625 -44.04125 23.14125 -44.0625 18.0625 C-44.071604 16.50539307 -44.08070801 14.94828613 -44.09008789 13.34399414 C-44.09258545 12.12832764 -44.09508301 10.91266113 -44.09765625 9.66015625 C-44.10289307 8.40855713 -44.10812988 7.15695801 -44.11352539 5.86743164 C-44 3 -44 3 -43 2 C-39.99358969 1.93605819 -37.00950529 1.93383694 -34.00390625 1.97265625 C-32.14778832 1.98530232 -30.29166843 1.99766329 -28.43554688 2.00976562 C-25.49464907 2.03461551 -22.55385129 2.06259808 -19.61303711 2.09594727 C-16.78498677 2.12606065 -13.95706531 2.14389821 -11.12890625 2.16015625 C-10.24554092 2.17361588 -9.3621756 2.1870755 -8.45204163 2.20094299 C-6.30033668 2.20983636 -4.14869286 2.11415879 -2 2 C-1.34 1.34 -0.68 0.68 0 0 Z " fill="#EFD966" transform="translate(47,68)"/>
<path d="M0 0 C5.28 0 10.56 0 16 0 C16 1.98 16 3.96 16 6 C14.68 6 13.36 6 12 6 C12 14.25 12 22.5 12 31 C9.36 31 6.72 31 4 31 C4 22.75 4 14.5 4 6 C2.68 6 1.36 6 0 6 C0 4.02 0 2.04 0 0 Z " fill="#272A30" transform="translate(181,132)"/>
<path d="M0 0 C5.61 0 11.22 0 17 0 C17 1.98 17 3.96 17 6 C15.35 6 13.7 6 12 6 C12 14.25 12 22.5 12 31 C9.69 31 7.38 31 5 31 C5 22.75 5 14.5 5 6 C3.35 6 1.7 6 0 6 C0 4.02 0 2.04 0 0 Z " fill="#46484D" transform="translate(334,132)"/>
<path d="M0 0 C2.31 0 4.62 0 7 0 C7 8.25 7 16.5 7 25 C9.31 25 11.62 25 14 25 C14 26.98 14 28.96 14 31 C9.38 31 4.76 31 0 31 C0 20.77 0 10.54 0 0 Z " fill="#282B30" transform="translate(216,132)"/>
<path d="M0 0 C0.7734375 0.00386719 1.546875 0.00773438 2.34375 0.01171875 C4.5 0.3125 4.5 0.3125 7.5 2.3125 C8.20052461 4.975563 8.27744818 7.55285737 8.5 10.3125 C5.86 10.3125 3.22 10.3125 0.5 10.3125 C0.17 9.6525 -0.16 8.9925 -0.5 8.3125 C-0.52578125 9.0859375 -0.5515625 9.859375 -0.578125 10.65625 C-0.95519702 17.58066347 -1.94409517 22.34775642 -5.5 28.3125 C-6.16 27.9825 -6.82 27.6525 -7.5 27.3125 C-7.58696177 23.37513877 -7.64037835 19.43802372 -7.6875 15.5 C-7.71263672 14.38044922 -7.73777344 13.26089844 -7.76367188 12.10742188 C-7.77333984 11.03427734 -7.78300781 9.96113281 -7.79296875 8.85546875 C-7.8086792 7.86571045 -7.82438965 6.87595215 -7.84057617 5.85620117 C-7.5 3.3125 -7.5 3.3125 -6.11645508 1.48876953 C-3.98202553 -0.06442207 -2.61825553 -0.05672887 0 0 Z " fill="#2F3238" transform="translate(161.5,131.6875)"/>
<path d="M0 0 C2.31 0 4.62 0 7 0 C7 10.23 7 20.46 7 31 C4.69 31 2.38 31 0 31 C0 20.77 0 10.54 0 0 Z " fill="#2D3035" transform="translate(173,132)"/>
<path d="M0 0 C2.31 0 4.62 0 7 0 C7 10.23 7 20.46 7 31 C4.69 31 2.38 31 0 31 C0 20.77 0 10.54 0 0 Z " fill="#37393F" transform="translate(352,132)"/>
<path d="M0 0 C2.97 0.495 2.97 0.495 6 1 C6.33 2.65 6.66 4.3 7 6 C7.66 6 8.32 6 9 6 C9.33 9.3 9.66 12.6 10 16 C9.01 16 8.02 16 7 16 C5.96409801 21.05002222 5.89748328 25.87416389 6 31 C4.02 31 2.04 31 0 31 C0 20.77 0 10.54 0 0 Z " fill="#2D2E34" transform="translate(239,132)"/>
<path d="M0 0 C3.3 0 6.6 0 10 0 C11.19315604 4.77262417 11.7122808 9.10900517 11 14 C8.81155747 16.97871344 7.1898436 18.4400736 3.875 20 C2 20 2 20 0.3984375 18.90234375 C-1.64124659 16.1276897 -1.32719834 13.9630867 -1.25 10.5625 C-1.23453125 9.42941406 -1.2190625 8.29632813 -1.203125 7.12890625 C-1 4 -1 4 0 0 Z M4 16 C5 18 5 18 5 18 Z " fill="#3F4147" transform="translate(200,132)"/>
<path d="M0 0 C0.33 0 0.66 0 1 0 C1.33 2.31 1.66 4.62 2 7 C3.98 6.67 5.96 6.34 8 6 C10 9 10 9 10 13 C9.01 13.33 8.02 13.66 7 14 C7.33 14.66 7.66 15.32 8 16 C7.67 16.66 7.34 17.32 7 18 C7.66 18.33 8.32 18.66 9 19 C8.67 22.96 8.34 26.92 8 31 C5.36 31 2.72 31 0 31 C0 20.77 0 10.54 0 0 Z " fill="#606268" transform="translate(282,132)"/>
<path d="M0 0 C1.65 0 3.3 0 5 0 C5.33776684 1.7491497 5.67003671 3.49936145 6 5.25 C6.185625 6.22453125 6.37125 7.1990625 6.5625 8.203125 C7 11 7 11 7 15 C8.65 14.67 10.3 14.34 12 14 C12 19.61 12 25.22 12 31 C5.1640625 31.1953125 5.1640625 31.1953125 3 31 C1 29 1 29 0.8046875 25.0859375 C0.81799624 23.51550649 0.84186398 21.94513779 0.875 20.375 C0.88402344 19.57320312 0.89304688 18.77140625 0.90234375 17.9453125 C0.92593777 15.96341477 0.96180935 13.98167019 1 12 C1.66 13.32 2.32 14.64 3 16 C3.66 15.67 4.32 15.34 5 15 C5 12.03 5 9.06 5 6 C4.34 6 3.68 6 3 6 C2.814375 5.071875 2.814375 5.071875 2.625 4.125 C2.12802644 1.80879168 2.12802644 1.80879168 0 0 Z " fill="#484B51" transform="translate(243,132)"/>
<path d="M0 0 C1.98 0 3.96 0 6 0 C6 10.23 6 20.46 6 31 C4.02 31 2.04 31 0 31 C0 20.77 0 10.54 0 0 Z " fill="#282A30" transform="translate(144,132)"/>
<path d="M0 0 C1.98 0 3.96 0 6 0 C5.814375 0.5775 5.62875 1.155 5.4375 1.75 C4.95261433 4.24369772 5.30093578 5.59211213 6 8 C6 8.99 6 9.98 6 11 C7.32 10.67 8.64 10.34 10 10 C10.625 11.8125 10.625 11.8125 11 14 C10.01 15.485 10.01 15.485 9 17 C7.68 17 6.36 17 5 17 C5 21.29 5 25.58 5 30 C3.35 30 1.7 30 0 30 C0 20.1 0 10.2 0 0 Z " fill="#27282F" transform="translate(363,133)"/>
<path d="M0 0 C12 0 12 0 15.23046875 1.82421875 C17.83058526 6.49065302 17.5413804 10.56937813 17.3125 15.8125 C17.28994141 16.79154297 17.26738281 17.77058594 17.24414062 18.77929688 C17.18539727 21.18777455 17.10332129 23.59309078 17 26 C16.67 26 16.34 26 16 26 C16 20.06 16 14.12 16 8 C14.35 8 12.7 8 11 8 C10.67 13.61 10.34 19.22 10 25 C9.67 25 9.34 25 9 25 C9 18.73 9 12.46 9 6 C8.34 6 7.68 6 7 6 C6.67 6.66 6.34 7.32 6 8 C4.68 8 3.36 8 2 8 C1.67 15.59 1.34 23.18 1 31 C0.67 31 0.34 31 0 31 C0 20.77 0 10.54 0 0 Z " fill="#67686D" transform="translate(124,132)"/>
<path d="M0 0 C0.33 0 0.66 0 1 0 C1.13277344 1.00160156 1.26554687 2.00320312 1.40234375 3.03515625 C1.58071127 4.37760654 1.7590977 5.72005433 1.9375 7.0625 C2.02451172 7.71927734 2.11152344 8.37605469 2.20117188 9.05273438 C2.77569697 13.37231192 3.37745827 17.68707577 4 22 C1.36 22 -1.28 22 -4 22 C-5.13764351 17.73383684 -6 14.43513689 -6 10 C-6.33 9.01 -6.66 8.02 -7 7 C-6.5625 4.8125 -6.5625 4.8125 -6 3 C-4.35 3 -2.7 3 -1 3 C-0.67 2.01 -0.34 1.02 0 0 Z " fill="#484950" transform="translate(277,141)"/>
<path d="M0 0 C0.33 0 0.66 0 1 0 C1 9.9 1 19.8 1 30 C-1.97 30 -4.94 30 -8 30 C-8.99 26.37 -9.98 22.74 -11 19 C-9.35 19 -7.7 19 -6 19 C-5.67 17.35 -5.34 15.7 -5 14 C-3 17 -3 17 -1 23 C-0.67 15.41 -0.34 7.82 0 0 Z " fill="#8E8F92" transform="translate(319,133)"/>
<path d="M0 0 C5 4 5 4 5.56762695 6.47363281 C5.54144287 7.37436523 5.51525879 8.27509766 5.48828125 9.203125 C5.47216797 10.1828125 5.45605469 11.1625 5.43945312 12.171875 C5.39755859 13.18765625 5.35566406 14.2034375 5.3125 15.25 C5.28994141 16.28125 5.26738281 17.3125 5.24414062 18.375 C5.18527163 20.91814065 5.10310065 23.45833113 5 26 C3.35 26 1.7 26 0 26 C0 17.42 0 8.84 0 0 Z " fill="#272830" transform="translate(340,137)"/>
<path d="M0 0 C2.64 0 5.28 0 8 0 C8 4.95 8 9.9 8 15 C7.67 14.01 7.34 13.02 7 12 C4.03 12.66 1.06 13.32 -2 14 C-1.85923685 12.0412957 -1.7122324 10.08303907 -1.5625 8.125 C-1.48128906 7.03445312 -1.40007812 5.94390625 -1.31640625 4.8203125 C-1 2 -1 2 0 0 Z " fill="#26292F" transform="translate(252,133)"/>
<path d="M0 0 C2.31 0 4.62 0 7 0 C7 8.25 7 16.5 7 25 C9.31 25 11.62 25 14 25 C14 26.98 14 28.96 14 31 C9.71 31 5.42 31 1 31 C1 29.35 1 27.7 1 26 C1.64453125 25.45859375 2.2890625 24.9171875 2.953125 24.359375 C6.27522012 20.53008979 5.67813087 16.15670151 5.75 11.25 C5.77964844 10.26644531 5.80929688 9.28289062 5.83984375 8.26953125 C5.91042411 5.84627224 5.96317701 3.42396846 6 1 C4.35 1 2.7 1 1 1 C0.67 2.32 0.34 3.64 0 5 C0 3.35 0 1.7 0 0 Z " fill="#3C3E43" transform="translate(216,132)"/>
<path d="M0 0 C2.64 0 5.28 0 8 0 C8 5.94 8 11.88 8 18 C6.35 18 4.7 18 3 18 C3.020625 17.195625 3.04125 16.39125 3.0625 15.5625 C3.29633621 13.06645115 3.29633621 13.06645115 2 12 C1.95919217 10.00041636 1.95745644 7.99954746 2 6 C1.34 6 0.68 6 0 6 C0 4.02 0 2.04 0 0 Z " fill="#282B30" transform="translate(390,145)"/>
<path d="M0 0 C5.28 0 10.56 0 16 0 C16 1.98 16 3.96 16 6 C15.67 6 15.34 6 15 6 C15 4.35 15 2.7 15 1 C12.69 1.33 10.38 1.66 8 2 C8.04125 3.11375 8.0825 4.2275 8.125 5.375 C8 9 8 9 6 11 C5.63047951 13.12860662 5.63047951 13.12860662 5.5859375 15.5703125 C5.54726562 16.46621094 5.50859375 17.36210937 5.46875 18.28515625 C5.4378125 19.22230469 5.406875 20.15945312 5.375 21.125 C5.33632812 22.06988281 5.29765625 23.01476562 5.2578125 23.98828125 C5.16338654 26.32532375 5.07781606 28.66235501 5 31 C4.67 31 4.34 31 4 31 C4 22.75 4 14.5 4 6 C2.68 6 1.36 6 0 6 C0 4.02 0 2.04 0 0 Z " fill="#64656A" transform="translate(181,132)"/>
<path d="M0 0 C0.33 0 0.66 0 1 0 C1.33 1.65 1.66 3.3 2 5 C2.66 3.35 3.32 1.7 4 0 C6.31 0 8.62 0 11 0 C11.68041782 5.27323808 9.24786337 9.39388711 7 14 C6.67 13.34 6.34 12.68 6 12 C5.01 11.67 4.02 11.34 3 11 C3.33 10.01 3.66 9.02 4 8 C2.68 8.99 1.36 9.98 0 11 C0 7.37 0 3.74 0 0 Z " fill="#505157" transform="translate(307,132)"/>
<path d="M0 0 C0.33 0 0.66 0 1 0 C1 14.85 1 29.7 1 45 C-0.485 45.495 -0.485 45.495 -2 46 C-2 44.68 -2 43.36 -2 42 C-2.99 42 -3.98 42 -5 42 C-5 41.01 -5 40.02 -5 39 C-6.32 39 -7.64 39 -9 39 C-9 37.68 -9 36.36 -9 35 C-10.32 34.67 -11.64 34.34 -13 34 C-13.33 32.35 -13.66 30.7 -14 29 C-12.95541681 29.87151615 -11.91453593 30.74746967 -10.875 31.625 C-10.29492188 32.11226562 -9.71484375 32.59953125 -9.1171875 33.1015625 C-6.30641377 35.62192418 -3.66951981 38.33048019 -1 41 C-0.67 27.47 -0.34 13.94 0 0 Z " fill="#EECE31" transform="translate(71,7)"/>
<path d="M0 0 C2 2 2 2 2.1875 5.5 C2 9 2 9 1 11 C1.66 11.33 2.32 11.66 3 12 C1.1875 12.6875 1.1875 12.6875 -1 13 C-2.75 12 -2.75 12 -4 10 C-4.4375 6.5 -4.4375 6.5 -4 3 C-2 1.0625 -2 1.0625 0 0 Z M6 1 C6.66 1.66 7.32 2.32 8 3 C7.875 6 7.875 6 7 9 C4.9375 10.375 4.9375 10.375 3 11 C2.63076923 5.58461538 2.63076923 5.58461538 4.5 2.625 C4.995 2.08875 5.49 1.5525 6 1 Z " fill="#262831" transform="translate(203,139)"/>
<path d="M0 0 C0.33 0.99 0.66 1.98 1 3 C0.34 3.66 -0.32 4.32 -1 5 C-0.72965366 7.43717258 -0.72965366 7.43717258 0 10 C0.2784375 11.1446875 0.2784375 11.1446875 0.5625 12.3125 C0.706875 12.869375 0.85125 13.42625 1 14 C0.01 14.495 0.01 14.495 -1 15 C-0.67 16.32 -0.34 17.64 0 19 C-0.66 19 -1.32 19 -2 19 C-2 18.34 -2 17.68 -2 17 C-2.99 16.67 -3.98 16.34 -5 16 C-5 15.34 -5 14.68 -5 14 C-6.32 13.34 -7.64 12.68 -9 12 C-8.6875 10.0625 -8.6875 10.0625 -8 8 C-7.01 7.67 -6.02 7.34 -5 7 C-4.29848848 5.6846659 -3.63474075 4.34882408 -3 3 C-1.375 1.25 -1.375 1.25 0 0 Z " fill="#F4D52B" transform="translate(26,28)"/>
<path d="M0 0 C0.33 0 0.66 0 1 0 C1.33 7.26 1.66 14.52 2 22 C3.32 19.69 4.64 17.38 6 15 C7.26141331 17.27054395 8.00713101 19.04278608 8.4375 21.625 C8.80002845 24.3591054 8.80002845 24.3591054 12 26 C9.15916359 27.42041821 7.14522722 27.31452272 4 27 C1.34647474 24.94569636 0.13789408 23.77902744 -0.45410156 20.43457031 C-0.4331543 19.49194336 -0.41220703 18.54931641 -0.390625 17.578125 C-0.37773437 16.55332031 -0.36484375 15.52851563 -0.3515625 14.47265625 C-0.31804687 13.40917969 -0.28453125 12.34570312 -0.25 11.25 C-0.23195312 10.17105469 -0.21390625 9.09210938 -0.1953125 7.98046875 C-0.14821415 5.31941212 -0.082456 2.66015746 0 0 Z " fill="#515359" transform="translate(153,137)"/>
<path d="M0 0 C6.34507042 -0.35915493 6.34507042 -0.35915493 8.9375 1.0625 C10.55479605 4.01168691 10.18630138 6.70867559 10 10 C7.69 10 5.38 10 3 10 C3 8.68 3 7.36 3 6 C2.01 5.67 1.02 5.34 0 5 C0 4.34 0 3.68 0 3 C0.66 3 1.32 3 2 3 C2 2.34 2 1.68 2 1 C1.34 0.67 0.68 0.34 0 0 Z " fill="#44464D" transform="translate(388,132)"/>
<path d="M0 0 C2.64 0 5.28 0 8 0 C8 1.65 8 3.3 8 5 C7.01 5 6.02 5 5 5 C5 13.25 5 21.5 5 30 C4.67 30 4.34 30 4 30 C3.98541748 29.37955811 3.97083496 28.75911621 3.95581055 28.11987305 C3.88133412 25.30845367 3.78467436 22.49822251 3.6875 19.6875 C3.66494141 18.71103516 3.64238281 17.73457031 3.61914062 16.72851562 C3.58369141 15.79072266 3.54824219 14.85292969 3.51171875 13.88671875 C3.48553467 13.02264404 3.45935059 12.15856934 3.43237305 11.26831055 C2.91513058 8.55475901 1.96417693 7.85010495 0 6 C-0.1875 2.8125 -0.1875 2.8125 0 0 Z " fill="#3B3E43" transform="translate(188,133)"/>
<path d="M0 0 C2.64 0 5.28 0 8 0 C8.33 0.99 8.66 1.98 9 3 C9.66 2.01 10.32 1.02 11 0 C11 3.3 11 6.6 11 10 C10.67 9.34 10.34 8.68 10 8 C9.01 8.33 8.02 8.66 7 9 C6.690625 8.030625 6.38125 7.06125 6.0625 6.0625 C5.30476658 3.15934208 5.30476658 3.15934208 4 2 C3.01 1.67 2.02 1.34 1 1 C1 10.9 1 20.8 1 31 C0.67 31 0.34 31 0 31 C0 20.77 0 10.54 0 0 Z " fill="#898B93" transform="translate(362,132)"/>
<path d="M0 0 C4.75 0.875 4.75 0.875 7 2 C7.59355614 4.64860427 7.74209269 7.29197322 8 10 C5.36 10 2.72 10 0 10 C-1.125 2.25 -1.125 2.25 0 0 Z " fill="#45464C" transform="translate(162,132)"/>
<path d="M0 0 C0.33 0 0.66 0 1 0 C2.33257403 12.66970387 2.33257403 12.66970387 1 18 C1.66 18 2.32 18 3 18 C3 16.02 3 14.04 3 12 C3.33 12 3.66 12 4 12 C4.41694996 13.59880813 4.80790856 15.20441261 5.1875 16.8125 C5.40792969 17.70582031 5.62835938 18.59914062 5.85546875 19.51953125 C6 22 6 22 4.75 23.8125 C2.18984557 25.54974765 0.01182533 25.20078836 -3 25 C-2.67 24.34 -2.34 23.68 -2 23 C-0.68 23 0.64 23 2 23 C2.33 21.68 2.66 20.36 3 19 C2.01 19 1.02 19 0 19 C0 12.73 0 6.46 0 0 Z " fill="#5A5D63" transform="translate(388,139)"/>
<path d="M0 0 C1.32 0.33 2.64 0.66 4 1 C4.66 0.67 5.32 0.34 6 0 C6 3.3 6 6.6 6 10 C4.02 10 2.04 10 0 10 C0 6.7 0 3.4 0 0 Z " fill="#27282E" transform="translate(283,153)"/>
<path d="M0 0 C0.99 0.33 1.98 0.66 3 1 C0.85714108 3.16968191 -1.28908232 5.33583475 -3.4375 7.5 C-4.35499023 8.43005859 -4.35499023 8.43005859 -5.29101562 9.37890625 C-5.87431641 9.96542969 -6.45761719 10.55195313 -7.05859375 11.15625 C-7.59798584 11.70087891 -8.13737793 12.24550781 -8.69311523 12.80664062 C-10 14 -10 14 -11 14 C-11 12.02 -11 10.04 -11 8 C-10.34 7.67 -9.68 7.34 -9 7 C-8.34 7.33 -7.68 7.66 -7 8 C-6.67 7.01 -6.34 6.02 -6 5 C-5.01 4.67 -4.02 4.34 -3 4 C-3 3.34 -3 2.68 -3 2 C-2.01 2 -1.02 2 0 2 C0 1.34 0 0.68 0 0 Z " fill="#F2D94C" transform="translate(63,127)"/>
<path d="M0 0 C0 1.66666667 0 3.33333333 0 5 C0.66 5.33 1.32 5.66 2 6 C1.835 6.5775 1.67 7.155 1.5 7.75 C0.85537969 10.26664369 0.85537969 10.26664369 1 14 C-1 14 -1 14 -3.625 11.6875 C-6 9 -6 9 -6 6 C-5.34 6 -4.68 6 -4 6 C-3.71125 5.38125 -3.4225 4.7625 -3.125 4.125 C-2 2 -2 2 0 0 Z " fill="#F5D322" transform="translate(23,126)"/>
<path d="M0 0 C0.66 0 1.32 0 2 0 C0.24880383 7.88038278 0.24880383 7.88038278 -2.8125 10.625 C-3.534375 11.07875 -4.25625 11.5325 -5 12 C-6.2684375 12.8353125 -6.2684375 12.8353125 -7.5625 13.6875 C-10 15 -10 15 -13 15 C-11.71034824 13.62437146 -10.37310707 12.29233607 -9 11 C-8.34 11 -7.68 11 -7 11 C-6.34 9.68 -5.68 8.36 -5 7 C-4.34 7 -3.68 7 -3 7 C-3 6.34 -3 5.68 -3 5 C-2.34 5 -1.68 5 -1 5 C-0.67 3.35 -0.34 1.7 0 0 Z " fill="#EFD747" transform="translate(48,99)"/>
<path d="M0 0 C1.5 1.0625 1.5 1.0625 3 3 C3.1875 6.6875 3.1875 6.6875 3 10 C1.35 10 -0.3 10 -2 10 C-2 7.03 -2 4.06 -2 1 C-1.34 0.67 -0.68 0.34 0 0 Z " fill="#26292E" transform="translate(304,153)"/>
<path d="M0 0 C2.12508244 3.18762365 2.5020163 5.26512223 3 9 C1.68 9 0.36 9 -1 9 C-1.66 10.65 -2.32 12.3 -3 14 C-3.33 14 -3.66 14 -4 14 C-4.66 11.03 -5.32 8.06 -6 5 C-4.35 5 -2.7 5 -1 5 C-0.67 3.35 -0.34 1.7 0 0 Z " fill="#59595E" transform="translate(314,147)"/>
<path d="M0 0 C1.65 0 3.3 0 5 0 C4.67 0.99 4.34 1.98 4 3 C3.34 3 2.68 3 2 3 C1.67 12.24 1.34 21.48 1 31 C0.67 31 0.34 31 0 31 C0 20.77 0 10.54 0 0 Z " fill="#6D7074" transform="translate(173,132)"/>
<path d="M0 0 C4.91935902 4.11619836 9.52647956 8.40410362 14 13 C13.01 13.495 13.01 13.495 12 14 C11.01 13.67 10.02 13.34 9 13 C9 12.01 9 11.02 9 10 C7.68 10 6.36 10 5 10 C5 8.68 5 7.36 5 6 C3.68 5.67 2.36 5.34 1 5 C0.67 3.35 0.34 1.7 0 0 Z " fill="#F0DC65" transform="translate(57,36)"/>
<path d="M0 0 C1.65 0 3.3 0 5 0 C5 2.64 5 5.28 5 8 C3.35 8 1.7 8 0 8 C0 5.36 0 2.72 0 0 Z " fill="#2A2D33" transform="translate(302,132)"/>
<path d="M0 0 C2.64 0 5.28 0 8 0 C8 1.65 8 3.3 8 5 C7.67 4.34 7.34 3.68 7 3 C6.401875 3.495 5.80375 3.99 5.1875 4.5 C3 6 3 6 0 6 C0 4.02 0 2.04 0 0 Z " fill="#2E3037" transform="translate(390,145)"/>
<path d="M0 0 C0.33 0 0.66 0 1 0 C1 3.33333333 1 6.66666667 1 10 C0.01 9.01 -0.98 8.02 -2 7 C-2.99 8.32 -3.98 9.64 -5 11 C-5.88492145 8.52221994 -6.11637742 7.33943414 -5.25 4.8125 C-4 3 -4 3 -1 2 C-0.67 1.34 -0.34 0.68 0 0 Z " fill="#25272E" transform="translate(270,143)"/>
<path d="M0 0 C0.66 0 1.32 0 2 0 C2.625 1.875 2.625 1.875 3 4 C0.77174356 6.22825644 -0.65761628 6.69239369 -3.625 7.625 C-4.44226563 7.88539062 -5.25953125 8.14578125 -6.1015625 8.4140625 C-6.72804688 8.60742188 -7.35453125 8.80078125 -8 9 C-6.71937515 7.2925002 -5.38232443 5.62626404 -4 4 C-3.34 4 -2.68 4 -2 4 C-2 3.34 -2 2.68 -2 2 C-1.34 2 -0.68 2 0 2 C0 1.34 0 0.68 0 0 Z " fill="#F0D646" transform="translate(32,117)"/>
<path d="M0 0 C3.7952131 1.49097658 5.61042731 3.75700849 8 7 C7.01 7.495 7.01 7.495 6 8 C6 7.34 6 6.68 6 6 C2.7 5.67 -0.6 5.34 -4 5 C-2.68 3.35 -1.36 1.7 0 0 Z " fill="#F1DD64" transform="translate(37,17)"/>
<path d="M0 0 C4.96702804 1.27063508 7.71893937 3.04342689 11 7 C11 7.99 11 8.98 11 10 C10.34 10 9.68 10 9 10 C9 9.34 9 8.68 9 8 C7.68 7.34 6.36 6.68 5 6 C5 5.34 5 4.68 5 4 C4.34 4 3.68 4 3 4 C3 3.34 3 2.68 3 2 C2.01 1.67 1.02 1.34 0 1 C0 0.67 0 0.34 0 0 Z " fill="#F1DC50" transform="translate(36,58)"/>
<path d="M0 0 C1.65 0 3.3 0 5 0 C5.33776684 1.7491497 5.67003671 3.49936145 6 5.25 C6.185625 6.22453125 6.37125 7.1990625 6.5625 8.203125 C7 11 7 11 7 15 C6.34 15 5.68 15 5 15 C5 12.03 5 9.06 5 6 C4.34 6 3.68 6 3 6 C2.814375 5.071875 2.814375 5.071875 2.625 4.125 C2.12802644 1.80879168 2.12802644 1.80879168 0 0 Z " fill="#606267" transform="translate(243,132)"/>
<path d="M0 0 C1.98 0 3.96 0 6 0 C6 1.65 6 3.3 6 5 C4.02 5 2.04 5 0 5 C0 3.35 0 1.7 0 0 Z " fill="#282A2F" transform="translate(392,137)"/>
<path d="M0 0 C1.65 0 3.3 0 5 0 C5 1.65 5 3.3 5 5 C2.625 5.1875 2.625 5.1875 0 5 C-0.66 4.01 -1.32 3.02 -2 2 C-1.34 2 -0.68 2 0 2 C0 1.34 0 0.68 0 0 Z " fill="#262931" transform="translate(327,133)"/>
<path d="M0 0 C2.31 0 4.62 0 7 0 C7 1.98 7 3.96 7 6 C5.35 5.67 3.7 5.34 2 5 C2.33 4.01 2.66 3.02 3 2 C2.01 1.34 1.02 0.68 0 0 Z " fill="#5E5F62" transform="translate(223,157)"/>
<path d="M0 0 C0.33 0 0.66 0 1 0 C1 2.97 1 5.94 1 9 C-0.65 9 -2.3 9 -4 9 C-3.67 7.35 -3.34 5.7 -3 4 C-2.34 4 -1.68 4 -1 4 C-0.67 2.68 -0.34 1.36 0 0 Z " fill="#5E5F64" transform="translate(213,154)"/>
<path d="M0 0 C2 2 2 2 2.13525391 3.87939453 C2.08288574 4.62302246 2.03051758 5.36665039 1.9765625 6.1328125 C1.89921875 7.34130859 1.89921875 7.34130859 1.8203125 8.57421875 C1.75585938 9.41597656 1.69140625 10.25773437 1.625 11.125 C1.56828125 11.97449219 1.5115625 12.82398438 1.453125 13.69921875 C1.31149023 15.8001345 1.15695674 17.90017334 1 20 C0.67 20 0.34 20 0 20 C-0.19421438 17.04196565 -0.38066186 14.08379837 -0.5625 11.125 C-0.61857422 10.28324219 -0.67464844 9.44148438 -0.73242188 8.57421875 C-0.78076172 7.76855469 -0.82910156 6.96289062 -0.87890625 6.1328125 C-0.9260376 5.38918457 -0.97316895 4.64555664 -1.02172852 3.87939453 C-1 2 -1 2 0 0 Z " fill="#4F5258" transform="translate(302,49)"/>
<path d="M0 0 C1.32 0.33 2.64 0.66 4 1 C4 2.65 4 4.3 4 6 C1.03 5.505 1.03 5.505 -2 5 C-1.34 3.35 -0.68 1.7 0 0 Z " fill="#27282F" transform="translate(313,155)"/>
<path d="M0 0 C1.32 0 2.64 0 4 0 C4 0.66 4 1.32 4 2 C5.32 2 6.64 2 8 2 C8 3.65 8 5.3 8 7 C7.34 7 6.68 7 6 7 C6 6.34 6 5.68 6 5 C5.34 5 4.68 5 4 5 C4 4.34 4 3.68 4 3 C3.34 3 2.68 3 2 3 C2 2.34 2 1.68 2 1 C1.34 0.67 0.68 0.34 0 0 Z " fill="#F1DA4F" transform="translate(26,143)"/>
<path d="M0 0 C0 3 0 3 -2 6 C-2.16713569 8.62531524 -2.16713569 8.62531524 -2 11 C-3.32 10.34 -4.64 9.68 -6 9 C-6 8.01 -6 7.02 -6 6 C-5.34 6 -4.68 6 -4 6 C-3.71125 5.38125 -3.4225 4.7625 -3.125 4.125 C-2 2 -2 2 0 0 Z " fill="#EEDA65" transform="translate(23,126)"/>
<path d="M0 0 C0.33 0.66 0.66 1.32 1 2 C0.67 2.66 0.34 3.32 0 4 C-0.66 4 -1.32 4 -2 4 C-1.67 5.98 -1.34 7.96 -1 10 C-2.32 9.34 -3.64 8.68 -5 8 C-4.6875 6.0625 -4.6875 6.0625 -4 4 C-3.01 3.67 -2.02 3.34 -1 3 C-0.67 2.01 -0.34 1.02 0 0 Z " fill="#F1DE6B" transform="translate(22,32)"/>
<path d="M0 0 C2.31 1.65 4.62 3.3 7 5 C6.01 5.66 5.02 6.32 4 7 C1.86906094 5.93453047 0.63412443 4.70840281 -1 3 C-0.67 2.01 -0.34 1.02 0 0 Z " fill="#4A4B50" transform="translate(156,48)"/>
<path d="M0 0 C1.14926266 0.95421808 2.29430541 1.91352045 3.4375 2.875 C4.07558594 3.40867187 4.71367188 3.94234375 5.37109375 4.4921875 C7 6 7 6 8 8 C6.35 7.67 4.7 7.34 3 7 C3 6.01 3 5.02 3 4 C2.01 3.67 1.02 3.34 0 3 C0 2.01 0 1.02 0 0 Z " fill="#EFDE6D" transform="translate(49,28)"/>
<path d="M0 0 C0.33 0.99 0.66 1.98 1 3 C-0.9375 6.1875 -0.9375 6.1875 -3 9 C-3.99 8.67 -4.98 8.34 -6 8 C-5.34 8 -4.68 8 -4 8 C-3.71125 7.05125 -3.4225 6.1025 -3.125 5.125 C-2 2 -2 2 0 0 Z " fill="#F1D745" transform="translate(26,28)"/>
<path d="M0 0 C0.99 0.33 1.98 0.66 3 1 C3 1.66 3 2.32 3 3 C4.32 3.66 5.64 4.32 7 5 C6.67 5.66 6.34 6.32 6 7 C3.50638429 5.79618552 1.31856917 4.54571278 -1 3 C-0.67 2.01 -0.34 1.02 0 0 Z " fill="#6D6E72" transform="translate(164,8)"/>
<path d="M0 0 C2.475 0.495 2.475 0.495 5 1 C3.35 2.65 1.7 4.3 0 6 C0 4.02 0 2.04 0 0 Z " fill="#F1DB50" transform="translate(41,146)"/>
<path d="M0 0 C1.32 0 2.64 0 4 0 C2.63016497 3.16115776 2.0109362 3.9927092 -1 6 C-0.67 4.02 -0.34 2.04 0 0 Z " fill="#EFDD52" transform="translate(67,121)"/>
<path d="M0 0 C0.33 0 0.66 0 1 0 C1 1.65 1 3.3 1 5 C-2.75 6.125 -2.75 6.125 -5 5 C-4.01 4.67 -3.02 4.34 -2 4 C-0.79117904 1.99983534 -0.79117904 1.99983534 0 0 Z " fill="#F2DA52" transform="translate(32,22)"/>
</svg>
